# xmcd
#
# Track frame offsets: 
#        150
#        18541
#        35857
#        45252
#        54598
#        66174
#        77897
#        92866
#        108773
#        124513
#        139896
#        162125
#        179052
#        194490
#        203828
#        215755
#        236874
#        251625
#        269784
#
# Disc length: 3729 seconds
#
# Revision: 2
# Processed by: cddbd v1.5.2PL0 Copyright (c) Steve Scherf et al.
# Submitted via: ExactAudioCopy v1.0b3
#
DISCID=250e8f13
DTITLE=Эдита Пьеха - Grand Collection
DYEAR=2003
DGENRE=Retro
TTITLE0=Санкт-Петербург
TTITLE1=Город детства
TTITLE2=Упрямая мелодия (Би-би-ю-ба)
TTITLE3=Ничего не вижу
TTITLE4=Венок Дуная
TTITLE5=Наш сосед
TTITLE6=Я люблю
TTITLE7=Белый свет
TTITLE8=Причал
TTITLE9=На Фонтанке
TTITLE10=Разноцветные кибитки
TTITLE11=Буду ждать тебя, любимый
TTITLE12=Руки
TTITLE13=Bunt Sind Schow Walder
TTITLE14=Сыплет небо порошею
TTITLE15=Пора подснежников
TTITLE16=Откром любовь неизвестную
TTITLE17=Семейный альбом
TTITLE18=Разве привыкают к чудесам
EXTD=
EXTT0=
EXTT1=
EXTT2=
EXTT3=
EXTT4=
EXTT5=
EXTT6=
EXTT7=
EXTT8=
EXTT9=
EXTT10=
EXTT11=
EXTT12=
EXTT13=
EXTT14=
EXTT15=
EXTT16=
EXTT17=
EXTT18=
PLAYORDER=
